<svg width="185" height="79" viewBox="0 0 185 79" fill="none" xmlns="http://www.w3.org/2000/svg">
    <path d="M1.6 1C1.6 0.668629 1.33137 0.4 1 0.4C0.668629 0.4 0.4 0.668629 0.4 1H1.6ZM184.479 74.0767C184.678 73.8124 184.626 73.4361 184.362 73.2362L180.055 69.979C179.791 69.7792 179.414 69.8314 179.214 70.0957C179.014 70.36 179.067 70.7363 179.331 70.9362L183.16 73.8314L180.264 77.6599C180.064 77.9242 180.117 78.3005 180.381 78.5004C180.645 78.7003 181.022 78.648 181.221 78.3837L184.479 74.0767ZM0.4 1C0.4 20.8012 8.10331 35.846 20.6141 47.112C33.1059 58.3609 50.3673 65.824 69.481 70.5494C107.707 79.9999 153.54 78.5483 184.082 74.3091L183.918 73.1205C153.46 77.348 107.793 78.785 69.769 69.3845C50.7577 64.6844 33.7066 57.287 21.4171 46.2203C9.14669 35.1707 1.6 20.4449 1.6 1H0.4Z" fill="black"/>
</svg>
